<svg version="1.2" xmlns="http://www.w3.org/2000/svg" viewBox="0 0 1133 804" width="1133" height="804">
	<title>Unnamed File(1) (2)-svg</title>
	<style>
		tspan { white-space:pre } 
		.s0 { fill: #ffffff } 
		.s1 { fill: #bec7ff;stroke: #222e72;stroke-width: 2.3 } 
		.t2 { font-size: 12px;fill: #191919;font-family: "Arial" } 
		.s3 { fill: #bec7ff } 
		.s4 { fill: none;stroke: #222e72;stroke-width: 2.3 } 
		.s5 { fill: #eceeff } 
		.s6 { fill: none;stroke: #7991ff } 
		.s7 { fill: #eceeff;stroke: #7991ff } 
		.s8 { fill: none;stroke: #191919 } 
		.s9 { fill: #000000 } 
		.s10 { fill: none;stroke: #191919;stroke-linecap: round;stroke-linejoin: round } 
		.s11 { fill: #d0f0ea;stroke: #101843 } 
		.s12 { fill: #999999 } 
		.s13 { fill: none;stroke: #999999 } 
		.s14 { fill: #c2c2c2 } 
	</style>
	<g id="page1">
		<path id="Layer" class="s0" d="m5 5h1123v794h-1123z"/>
		<g id="group1">
			<g id="shape2">
				<path id="Layer" class="s1" d="m127 118h90v56h-90z"/>
			</g>
			<text id="category" style="transform: matrix(1,0,0,1,141.258,151.2)" >
				<tspan x="0" y="0" class="t2">category
</tspan>
			</text>
		</g>
		<g id="group3">
			<g id="shape4">
				<path id="Layer" class="s1" d="m270 258h128v80h-128z"/>
			</g>
			<text id="reported_items" style="transform: matrix(1,0,0,1,280.552,303.2)" >
				<tspan x="0" y="0" class="t2">reported_items
</tspan>
			</text>
		</g>
		<g id="group5">
			<g id="shape6">
				<path id="Layer" class="s1" d="m496 442.5h170v106h-170z"/>
			</g>
			<text id="user_device_details" style="transform: matrix(1,0,0,1,510.183,500.7)" >
				<tspan x="0" y="0" class="t2">user_device_details
</tspan>
			</text>
		</g>
		<g id="group7">
			<g id="shape8">
				<path id="Layer" class="s1" d="m843 592h138v86h-138z"/>
			</g>
			<text id="messages" style="transform: matrix(1,0,0,1,875.46,640.2)" >
				<tspan x="0" y="0" class="t2">messages
</tspan>
			</text>
		</g>
		<g id="group9">
			<g id="shape10">
				<path id="Layer" class="s1" d="m924 53h90v56h-90z"/>
			</g>
			<text id="users" style="transform: matrix(1,0,0,1,949.383,86.2)" >
				<tspan x="0" y="0" class="t2">users
</tspan>
			</text>
		</g>
		<g id="group11">
			<g id="shape12">
				<path id="Layer" class="s1" d="m142 598h128v80h-128z"/>
			</g>
			<text id="admin_users" style="transform: matrix(1,0,0,1,160.115,643.2)" >
				<tspan x="0" y="0" class="t2">admin_users
</tspan>
			</text>
		</g>
		<g id="group13">
			<g id="shape14">
				<path id="Layer" class="s1" d="m496 327h90v56h-90z"/>
			</g>
			<text id="FAQ" style="transform: matrix(1,0,0,1,524.945,360.2)" >
				<tspan x="0" y="0" class="t2">FAQ
</tspan>
			</text>
		</g>
		<g id="shape15">
			<path id="Layer" class="s3" d="m436 104h120v70h-120z"/>
			<path id="Layer" fill-rule="evenodd" class="s4" d="m436 104h120v70h-120zm6 64h108v-58h-108z"/>
			<text id="security_QA" style="transform: matrix(1,0,0,1,452.413,144.2)" >
				<tspan x="0" y="0" class="t2">security_QA
</tspan>
			</text>
		</g>
		<g id="shape16">
			<path id="Layer" class="s5" d="m274 139l60-35 60 35-60 35z"/>
			<path id="Layer" fill-rule="evenodd" class="s6" d="m274 139l60-35 60 35-60 35zm60 30.3l52-30.3-52-30.4-52 30.4z"/>
			<text id="have" style="transform: matrix(1,0,0,1,316.65,144.2)" >
				<tspan x="0" y="0" class="t2">have
</tspan>
			</text>
		</g>
		<g id="shape17">
			<path id="Layer" class="s7" d="m112 298l60-35 60 35-60 35z"/>
			<text id="belongs_to" style="transform: matrix(1,0,0,1,132.837,303.2)" >
				<tspan x="0" y="0" class="t2">belongs_to
</tspan>
			</text>
		</g>
		<g id="shape18">
			<path id="Layer" class="s7" d="m97 494l60-35 60 35-60 35z"/>
			<text id="reports" style="transform: matrix(1,0,0,1,132.087,499.2)" >
				<tspan x="0" y="0" class="t2">reports
</tspan>
			</text>
		</g>
		<g id="shape19">
			<path id="Layer" class="s7" d="m304 494l60-35 60 35-60 35z"/>
			<text id="have" style="transform: matrix(1,0,0,1,346.65,499.2)" >
				<tspan x="0" y="0" class="t2">have
</tspan>
			</text>
		</g>
		<g id="shape20">
			<path id="Layer" class="s7" d="m436 613l60-35 60 35-60 35z"/>
			<text id="sends" style="transform: matrix(1,0,0,1,474.65,618.2)" >
				<tspan x="0" y="0" class="t2">sends
</tspan>
			</text>
		</g>
		<g id="shape21">
			<path id="Layer" class="s7" d="m436 698.8l60-35 60 35-60 35z"/>
			<text id="receives" style="transform: matrix(1,0,0,1,466.2,703.95)" >
				<tspan x="0" y="0" class="t2">receives
</tspan>
			</text>
		</g>
		<g id="shape22">
			<path id="Layer" class="s7" d="m799 513.5l60-35 60 35-60 35z"/>
			<text id="sends" style="transform: matrix(1,0,0,1,837.65,518.7)" >
				<tspan x="0" y="0" class="t2">sends
</tspan>
			</text>
		</g>
		<g id="shape23">
			<path id="Layer" class="s7" d="m943 513.5l60-35 60 35-60 35z"/>
			<text id="receives" style="transform: matrix(1,0,0,1,973.2,518.7)" >
				<tspan x="0" y="0" class="t2">receives
</tspan>
			</text>
		</g>
		<g id="shape24">
			<path id="Layer" class="s7" d="m663 139l60-35 60 35-60 35z"/>
			<text id="answers" style="transform: matrix(1,0,0,1,693.2,144.2)" >
				<tspan x="0" y="0" class="t2">answers
</tspan>
			</text>
		</g>
		<g id="shape25">
			<path id="Layer" class="s7" d="m663 250.5l60-35 60 35-60 35z"/>
			<text id="reports" style="transform: matrix(1,0,0,1,698.087,255.7)" >
				<tspan x="0" y="0" class="t2">reports
</tspan>
			</text>
		</g>
		<g id="shape26">
			<path id="Layer" class="s7" d="m663 362l60-35 60 35-60 35z"/>
			<text id="have" style="transform: matrix(1,0,0,1,705.65,367.2)" >
				<tspan x="0" y="0" class="t2">have
</tspan>
			</text>
		</g>
		<g id="shape27">
			<path id="Layer" fill-rule="evenodd" class="s8" d="m394 136.1h42m-42 5.7h42"/>
		</g>
		<g id="shape28">
			<path id="Layer" fill-rule="evenodd" class="s8" d="m336.9 174v84m-5.7-84v84"/>
			<path id="-e-arrow" class="s9" d="m324.6 243.8l0.8-0.5 9.3 17.5-0.9 0.4zm10.2 17.2l-0.9-0.4 7.6-16.4 0.9 0.4z"/>
		</g>
		<g id="shape29">
			<path id="Layer" fill-rule="evenodd" class="s8" d="m232 295.1h37.9m-37.9 5.7h37.9"/>
		</g>
		<g id="shape30">
			<path id="Layer" fill-rule="evenodd" class="s8" d="m172 174v89"/>
			<path id="Layer" fill-rule="evenodd" class="s10" d="m167 179l5-5 5 5"/>
		</g>
		<g id="shape31">
			<path id="Layer" fill-rule="evenodd" class="s8" d="m286 338v93h-129v28"/>
		</g>
		<g id="shape32">
			<path id="Layer" fill-rule="evenodd" class="s8" d="m158 598v-69"/>
			<path id="Layer" fill-rule="evenodd" class="s10" d="m163 593l-5 5-5-5"/>
		</g>
		<g id="shape33">
			<path id="Layer" class="s11" d="m55 396c0-19.4 26.8-35 60-35 33.1 0 60 15.6 60 35 0 19.3-26.9 35-60 35-33.2 0-60-15.7-60-35z"/>
			<text id="date_reported" style="transform: matrix(1,0,0,1,65.162,401.2)" >
				<tspan x="0" y="0" class="t2">date_reported
</tspan>
			</text>
		</g>
		<g id="shape34">
			<path id="Layer" fill-rule="evenodd" class="s8" d="m129.2 475.2l-14.3-44.3"/>
		</g>
		<g id="shape35">
			<path id="Layer" fill-rule="evenodd" class="s8" d="m304 494h-66v104"/>
			<path id="Layer" fill-rule="evenodd" class="s10" d="m242 594l-4 4-4-4"/>
		</g>
		<g id="shape36">
			<path id="Layer" fill-rule="evenodd" class="s8" d="m663 250.5h-52.8v47.5h-212.2"/>
		</g>
		<g id="shape37">
			<path id="Layer" fill-rule="evenodd" class="s8" d="m663 139h-106"/>
		</g>
		<g id="shape38">
			<path id="Layer" fill-rule="evenodd" class="s8" d="m783 139h56.5v-58h84.5"/>
		</g>
		<g id="shape39">
			<path id="Layer" class="s11" d="m720 51c0-19.4 26.8-35 60-35 33.1 0 60 15.6 60 35 0 19.3-26.9 35-60 35-33.2 0-60-15.7-60-35z"/>
			<text id="veri_status" style="transform: matrix(1,0,0,1,741.3,56.2)" >
				<tspan x="0" y="0" class="t2">veri_status
</tspan>
			</text>
		</g>
		<g id="shape40">
			<path id="Layer" fill-rule="evenodd" class="s8" d="m762.6 84.5l-14.3 34.2"/>
		</g>
		<g id="shape41">
			<path id="Layer" class="s11" d="m768 194c0-19.4 26.8-35 60-35 33.1 0 60 15.6 60 35 0 19.3-26.9 35-60 35-33.2 0-60-15.7-60-35z"/>
			<text id="date_reported" style="transform: matrix(1,0,0,1,778.162,199.2)" >
				<tspan x="0" y="0" class="t2">date_reported
</tspan>
			</text>
		</g>
		<g id="shape42">
			<path id="Layer" fill-rule="evenodd" class="s8" d="m747.4 229.7l34.1-13.6"/>
		</g>
		<g id="shape43">
			<path id="Layer" fill-rule="evenodd" class="s8" d="m783 250.5h152v-141"/>
			<path id="Layer" fill-rule="evenodd" class="s10" d="m931 113.5l4-4 4 4"/>
		</g>
		<g id="shape44">
			<path id="Layer" fill-rule="evenodd" class="s8" d="m663 362h-40v80"/>
		</g>
		<g id="shape45">
			<path id="Layer" fill-rule="evenodd" class="s8" d="m783 362h174v-253"/>
			<path id="Layer" fill-rule="evenodd" class="s10" d="m953 113l4-4 4 4"/>
		</g>
		<g id="shape46">
			<path id="Layer" fill-rule="evenodd" class="s8" d="m859 478.5v-72.5h121.2v-297"/>
			<path id="Layer" fill-rule="evenodd" class="s10" d="m976.2 113l4-4 4 4"/>
		</g>
		<g id="shape47">
			<path id="Layer" fill-rule="evenodd" class="s8" d="m1003 478.5v-369"/>
			<path id="Layer" fill-rule="evenodd" class="s10" d="m999 113.5l4-4 4 4"/>
		</g>
		<g id="shape48">
			<path id="Layer" fill-rule="evenodd" class="s8" d="m859 548.5v44"/>
		</g>
		<g id="shape49">
			<path id="Layer" fill-rule="evenodd" class="s8" d="m1003 548.5v28h-56v16"/>
		</g>
		<g id="shape50">
			<path id="Layer" fill-rule="evenodd" class="s8" d="m556 613h129.7v-0.1h157.3"/>
		</g>
		<g id="shape51">
			<path id="Layer" fill-rule="evenodd" class="s8" d="m556 698.8h128.9v-42.3h158.1"/>
		</g>
		<g id="shape52">
			<path id="Layer" fill-rule="evenodd" class="s8" d="m424 494h72"/>
		</g>
		<g id="shape53">
			<path id="Layer" fill-rule="evenodd" class="s8" d="m436 613h-166"/>
			<path id="Layer" fill-rule="evenodd" class="s10" d="m274 617l-4-4 4-4"/>
		</g>
		<g id="shape54">
			<path id="Layer" fill-rule="evenodd" class="s8" d="m436 698h-138v-40h-28"/>
			<path id="Layer" fill-rule="evenodd" class="s10" d="m274 662l-4-4 4-4"/>
		</g>
	</g>
	<g id="Layer" style="opacity: .4">
	</g>
	<g id="Layer" style="opacity: .4">
	</g>
	<g id="Layer" style="opacity: .4">
	</g>
	<g id="Layer" style="opacity: .4">
		<path id="Layer" fill-rule="evenodd" class="s12" d="m128.3 927.1l-1 1-5.1-2.7 2.7 5.1-1 0.9-6.8-3.9 1.1-1 4.7 2.9-2.6-5 1-1 4.9 2.7-2.8-4.8 1-1zm3.3-7.3c1.3 1.3 1.3 2.9 0.1 4-1.1 1.2-2.7 1.2-4-0.1-1.3-1.2-1.2-2.8-0.1-4 1.2-1.1 2.8-1.1 4 0.1zm-2.9 3c0.8 0.8 1.6 0.7 2.2 0.1 0.6-0.6 0.5-1.4-0.2-2.1-0.8-0.8-1.6-0.7-2.2-0.2-0.6 0.6-0.5 1.4 0.2 2.2zm6.5-7.7l2.5 2.6-0.9 0.9-2.5-2.5c-0.4-0.4-0.9-0.4-1.4 0.1-0.6 0.5-0.5 1.2 0.2 1.9l2.1 2.1-1 0.9-3.9-3.9 0.9-0.9 0.6 0.5c-0.1-0.5-0.1-1.1 0.6-1.8 0.9-0.9 1.9-0.8 2.8 0.1zm7.1-2l-0.9 0.9-0.6-0.6c0.2 0.7-0.1 1.4-0.6 2-1 0.9-2.4 1-3.8-0.3-1.4-1.4-1.3-2.9-0.3-3.8 0.5-0.5 1.2-0.8 1.8-0.7l-2-2 1-0.9zm-2.9-1.1c-0.8-0.8-1.7-0.6-2.2-0.1-0.6 0.5-0.7 1.4 0.1 2.2 0.8 0.8 1.7 0.7 2.2 0.2 0.6-0.6 0.7-1.5-0.1-2.3zm2.8-2.2c0.6 0.7 1.4 0.6 1.9 0 0.4-0.4 0.6-0.8 0.4-1.3l0.9-0.9c0.6 1.1 0.3 2.3-0.5 3.1-1 1-2.5 1.2-3.9-0.2-1.4-1.4-1.2-3-0.2-4 1-0.9 2.4-1.1 3.7 0.2l0.4 0.4zm-0.7-0.7l1.8-1.8c-0.5-0.5-1.1-0.4-1.7 0.1-0.4 0.4-0.6 1.1-0.1 1.7zm4.9-6.3l-0.2 0.3c-0.7 0.7-0.7 1.4 0.1 2.2l1.9 1.9-0.9 0.9-4-3.9 1-0.9 0.5 0.5c-0.2-0.6 0-1.2 0.4-1.6l0.3-0.3zm5.5-1.7c0.9 0.8 0.5 2.1-0.4 2.9-0.8 0.8-2 1.4-3.1 0.4l1-0.9c0.4 0.3 0.9 0.1 1.4-0.3 0.4-0.4 0.5-0.8 0.2-1.1-0.2-0.3-0.4-0.1-1.1 0.3-0.9 0.7-1.9 1.4-2.9 0.4-0.9-0.9-0.5-2 0.4-2.8 0.9-0.9 2-1.1 2.9-0.3l-0.9 0.9c-0.4-0.3-0.8-0.2-1.2 0.2-0.5 0.5-0.5 0.9-0.3 1.1 0.3 0.3 0.7 0 1.3-0.4 0.8-0.6 1.8-1.4 2.7-0.4zm2.8-5.5l2.5 2.6-0.9 0.9-2.5-2.4c-0.4-0.5-1-0.5-1.4 0-0.6 0.6-0.5 1.2 0.1 1.9l2.2 2.1-1 1-5.4-5.5 0.9-0.9 2.1 2.1c-0.1-0.6-0.1-1.2 0.6-1.9 0.8-0.9 1.8-0.8 2.8 0.1zm3.8-4.2l2.8 2.7-1 0.9-0.5-0.5c0.2 0.8-0.2 1.5-0.6 1.9-0.6 0.6-1.6 0.9-2.5 0.1-0.9-1-0.2-2.1 0.1-2.5l0.7-0.9c0.1-0.2 0.3-0.5 0-0.9-0.3-0.3-0.7-0.1-1 0.3-0.6 0.6-0.5 1-0.3 1.4l-0.9 0.9c-0.8-1.1-0.5-2.2 0.5-3.2 0.8-0.9 1.8-1.1 2.7-0.2zm0.2 2l-0.3-0.2c0 0.2-0.2 0.4-0.3 0.6l-0.4 0.5c-0.1 0.2-0.5 0.7-0.1 1.1 0.3 0.4 0.7 0.3 1-0.1 0.6-0.5 0.6-1.4 0.1-1.9zm2.6-5.4l-0.2 0.2c-0.7 0.7-0.7 1.4 0.1 2.2l1.9 1.9-1 0.9-3.9-3.9 0.9-0.9 0.6 0.5c-0.2-0.6 0-1.1 0.4-1.6l0.3-0.3zm2.5 0.3c0.6 0.6 1.3 0.5 1.9-0.1 0.4-0.4 0.6-0.8 0.4-1.3l0.9-0.9c0.6 1.1 0.3 2.3-0.5 3.1-1 1-2.5 1.2-3.9-0.2-1.4-1.4-1.2-2.9-0.2-3.9 1-1 2.4-1.2 3.7 0.1l0.4 0.4zm-0.7-0.8l1.8-1.7c-0.5-0.6-1.2-0.5-1.7 0-0.4 0.4-0.6 1.1-0.1 1.7zm-31 54.1l-5.3-5.3 3.6-3.6 0.9 0.9-2.6 2.6 1.3 1.3 2.4-2.4 0.9 0.9-2.4 2.4 1.3 1.3 2.7-2.7 1 0.9zm8.1-8l-0.9 0.9-0.6-0.6c0.2 0.7 0 1.4-0.6 1.9-1 1-2.4 1.1-3.8-0.3-1.4-1.3-1.2-2.8-0.3-3.8 0.5-0.5 1.2-0.7 1.8-0.6l-2-2 1-1zm-2.9-1.1c-0.8-0.8-1.7-0.7-2.2-0.1-0.6 0.5-0.7 1.4 0.1 2.2 0.8 0.8 1.7 0.7 2.3 0.1 0.5-0.5 0.6-1.4-0.2-2.2zm3-5.1l-0.3 0.2c-0.6 0.7-0.6 1.4 0.1 2.2l2 1.9-1 1-3.9-4 0.9-0.9 0.6 0.6c-0.2-0.7-0.1-1.2 0.4-1.7l0.3-0.3zm3.9-3.3l2.7 2.7-0.9 1-0.6-0.6c0.2 0.8-0.1 1.5-0.5 1.9-0.7 0.6-1.7 0.9-2.5 0.1-1-1-0.2-2.1 0.1-2.5l0.6-0.9c0.2-0.2 0.4-0.5 0.1-0.9-0.3-0.3-0.7-0.1-1.1 0.3-0.6 0.6-0.4 1-0.2 1.4l-0.9 0.9c-0.8-1.1-0.5-2.2 0.4-3.2 0.9-0.8 1.9-1.1 2.8-0.2zm0.1 2l-0.2-0.2c-0.1 0.2-0.2 0.4-0.4 0.6l-0.3 0.5c-0.2 0.2-0.5 0.7-0.1 1.2 0.3 0.3 0.7 0.2 1-0.1 0.6-0.6 0.6-1.4 0-2zm7.9-4.6l-0.9 0.9-3.4-1.7 1.7 3.4-0.9 1-5.3-2.6 1-1 3.5 1.8-1.8-3.5 0.9-0.9 3.5 1.8-1.8-3.5 1-1zm7.4-7.4l-0.9 1-3.8-3.8 2.4 5.1-0.9 0.9-5.1-2.4 3.8 3.8-0.9 0.9-5.4-5.3 1.3-1.3 5.5 2.6-2.6-5.6 1.3-1.2zm1.5-6.9l2.7 2.8-0.9 0.9-0.6-0.6c0.2 0.8-0.2 1.5-0.6 1.9-0.6 0.6-1.6 0.9-2.4 0.1-1-1-0.3-2 0-2.5l0.7-0.9c0.1-0.1 0.4-0.5 0.1-0.8-0.3-0.3-0.8-0.1-1.1 0.2-0.6 0.6-0.5 1.1-0.3 1.4l-0.9 0.9c-0.7-1-0.5-2.2 0.5-3.2 0.9-0.8 1.9-1.1 2.8-0.2zm0.1 2.1l-0.2-0.3c-0.1 0.3-0.2 0.4-0.4 0.7l-0.3 0.4c-0.2 0.2-0.6 0.7-0.1 1.2 0.3 0.3 0.6 0.2 1-0.1 0.6-0.6 0.5-1.4 0-1.9zm3.9-3.2l0.4 2.2-1.2 1.2-0.5-3.4-3.5-0.5 1.3-1.3 2.1 0.4-0.4-2.1 1.2-1.2 0.5 3.4 3.5 0.5-1.2 1.2z"/>
		<g id="Layer">
			<path id="Layer" fill-rule="evenodd" class="s13" d="m88.3 948.5l13.8-13.8c3.2-3.2 8.4-3.3 11.7 0l13.7 13.8c3.3 3.2 3.3 8.4 0 11.7l-13.7 13.8c-3.3 3.2-8.5 3.2-11.7-0.1l-13.8-13.8c-3.3-3.2-3.3-8.3 0-11.6z"/>
			<path id="Layer" class="s14" d="m109.2 955.6l-5.2 5.2c-0.7 0.7-1.8 0.7-2.5 0-0.8-0.8-0.8-1.9-0.1-2.6l5.2-5.2c0.7-0.7 1.9-0.7 2.6 0 0.7 0.8 0.7 1.9 0 2.6z"/>
			<path id="Layer" class="s12" d="m102.7 949.1l-5.2 5.2c-0.7 0.7-1.8 0.7-2.6 0-0.7-0.7-0.7-1.8 0-2.5l5.3-5.3c4.2-4.2 11.1-4.2 15.5 0.1 4.2 4.3 4.2 11.2 0 15.4l-5.3 5.3c-0.7 0.7-1.8 0.7-2.5 0-0.7-0.7-0.7-1.9 0-2.6l5.2-5.2c2.8-2.8 2.8-7.5 0-10.3-2.9-2.9-7.5-2.9-10.4-0.1z"/>
		</g>
	</g>
	<g id="Layer" style="opacity: .4">
	</g>
	<g id="Layer" style="opacity: .4">
	</g>
	<g id="Layer" style="opacity: .4">
	</g>
	<g id="Layer" style="opacity: .4">
		<path id="Layer" fill-rule="evenodd" class="s12" d="m393.3 927.1l-1 1-5.1-2.7 2.7 5.1-1 0.9-6.8-3.9 1.1-1 4.7 2.9-2.6-5 1-1 4.9 2.7-2.8-4.8 1-1zm3.3-7.3c1.3 1.3 1.3 2.9 0.1 4-1.1 1.2-2.7 1.2-4-0.1-1.3-1.2-1.2-2.8-0.1-4 1.2-1.1 2.8-1.1 4 0.1zm-2.9 3c0.8 0.8 1.6 0.7 2.2 0.1 0.6-0.6 0.5-1.4-0.2-2.1-0.8-0.8-1.6-0.7-2.2-0.2-0.6 0.6-0.5 1.4 0.2 2.2zm6.5-7.7l2.5 2.6-0.9 0.9-2.5-2.5c-0.4-0.4-0.9-0.4-1.4 0.1-0.6 0.5-0.5 1.2 0.2 1.9l2.1 2.1-1 0.9-3.9-3.9 0.9-0.9 0.6 0.5c-0.1-0.5-0.1-1.1 0.6-1.8 0.9-0.9 1.9-0.8 2.8 0.1zm7.1-2l-0.9 0.9-0.6-0.6c0.2 0.7-0.1 1.4-0.6 2-1 0.9-2.4 1-3.8-0.3-1.4-1.4-1.3-2.9-0.3-3.8 0.5-0.5 1.2-0.8 1.8-0.7l-2-2 1-0.9zm-2.9-1.1c-0.8-0.8-1.7-0.6-2.2-0.1-0.6 0.5-0.7 1.4 0.1 2.2 0.8 0.8 1.7 0.7 2.2 0.2 0.6-0.6 0.7-1.5-0.1-2.3zm2.8-2.2c0.6 0.7 1.4 0.6 1.9 0 0.4-0.4 0.6-0.8 0.4-1.3l0.9-0.9c0.6 1.1 0.3 2.3-0.5 3.1-1 1-2.5 1.2-3.9-0.2-1.4-1.4-1.2-3-0.2-4 1-0.9 2.4-1.1 3.7 0.2l0.4 0.4zm-0.7-0.7l1.8-1.8c-0.5-0.5-1.1-0.4-1.7 0.1-0.4 0.4-0.6 1.1-0.1 1.7zm4.9-6.3l-0.2 0.3c-0.7 0.7-0.7 1.4 0.1 2.2l1.9 1.9-0.9 0.9-4-3.9 1-0.9 0.5 0.5c-0.2-0.6 0-1.2 0.4-1.6l0.3-0.3zm5.5-1.7c0.9 0.8 0.5 2.1-0.4 2.9-0.8 0.8-2 1.4-3.1 0.4l1-0.9c0.4 0.3 0.9 0.1 1.4-0.3 0.4-0.4 0.5-0.8 0.2-1.1-0.2-0.3-0.4-0.1-1.1 0.3-0.9 0.7-1.9 1.4-2.9 0.4-0.9-0.9-0.5-2 0.4-2.8 0.9-0.9 2-1.1 2.9-0.3l-0.9 0.9c-0.4-0.3-0.8-0.2-1.2 0.2-0.5 0.5-0.5 0.9-0.3 1.1 0.3 0.3 0.7 0 1.3-0.4 0.8-0.6 1.8-1.4 2.7-0.4zm2.8-5.5l2.5 2.6-0.9 0.9-2.5-2.4c-0.4-0.5-1-0.5-1.4 0-0.6 0.6-0.5 1.2 0.1 1.9l2.2 2.1-1 1-5.4-5.5 0.9-0.9 2.1 2.1c-0.1-0.6-0.1-1.2 0.6-1.9 0.8-0.9 1.8-0.8 2.8 0.1zm3.8-4.2l2.8 2.7-1 0.9-0.5-0.5c0.2 0.8-0.2 1.5-0.6 1.9-0.6 0.6-1.6 0.9-2.5 0.1-0.9-1-0.2-2.1 0.1-2.5l0.7-0.9c0.1-0.2 0.3-0.5 0-0.9-0.3-0.3-0.7-0.1-1 0.3-0.6 0.6-0.5 1-0.3 1.4l-0.9 0.9c-0.8-1.1-0.5-2.2 0.5-3.2 0.8-0.9 1.8-1.1 2.7-0.2zm0.2 2l-0.3-0.2c0 0.2-0.2 0.4-0.3 0.6l-0.4 0.5c-0.1 0.2-0.5 0.7-0.1 1.1 0.3 0.4 0.7 0.3 1-0.1 0.6-0.5 0.6-1.4 0.1-1.9zm2.6-5.4l-0.2 0.2c-0.7 0.7-0.7 1.4 0.1 2.2l1.9 1.9-1 0.9-3.9-3.9 0.9-0.9 0.6 0.5c-0.2-0.6 0-1.1 0.4-1.6l0.3-0.3zm2.5 0.3c0.6 0.6 1.3 0.5 1.9-0.1 0.4-0.4 0.6-0.8 0.4-1.3l0.9-0.9c0.6 1.1 0.3 2.3-0.5 3.1-1 1-2.5 1.2-3.9-0.2-1.4-1.4-1.2-2.9-0.2-3.9 1-1 2.4-1.2 3.7 0.1l0.4 0.4zm-0.7-0.8l1.8-1.7c-0.5-0.6-1.2-0.5-1.7 0-0.4 0.4-0.6 1.1-0.1 1.7zm-31 54.1l-5.3-5.3 3.6-3.6 0.9 0.9-2.6 2.6 1.3 1.3 2.4-2.4 0.9 0.9-2.4 2.4 1.3 1.3 2.7-2.7 1 0.9zm8.1-8l-0.9 0.9-0.6-0.6c0.2 0.7 0 1.4-0.6 1.9-1 1-2.4 1.1-3.8-0.3-1.4-1.3-1.2-2.8-0.3-3.8 0.5-0.5 1.2-0.7 1.8-0.6l-2-2 1-1zm-2.9-1.1c-0.8-0.8-1.7-0.7-2.2-0.1-0.6 0.5-0.7 1.4 0.1 2.2 0.8 0.8 1.7 0.7 2.3 0.1 0.5-0.5 0.6-1.4-0.2-2.2zm3-5.1l-0.3 0.2c-0.6 0.7-0.6 1.4 0.1 2.2l2 1.9-1 1-3.9-4 0.9-0.9 0.6 0.6c-0.2-0.7-0.1-1.2 0.4-1.7l0.3-0.3zm3.9-3.3l2.7 2.7-0.9 1-0.6-0.6c0.2 0.8-0.1 1.5-0.5 1.9-0.7 0.6-1.7 0.9-2.5 0.1-1-1-0.2-2.1 0.1-2.5l0.6-0.9c0.2-0.2 0.4-0.5 0.1-0.9-0.3-0.3-0.7-0.1-1.1 0.3-0.6 0.6-0.4 1-0.2 1.4l-0.9 0.9c-0.8-1.1-0.5-2.2 0.4-3.2 0.9-0.8 1.9-1.1 2.8-0.2zm0.1 2l-0.2-0.2c-0.1 0.2-0.2 0.4-0.4 0.6l-0.3 0.5c-0.2 0.2-0.5 0.7-0.1 1.2 0.3 0.3 0.7 0.2 1-0.1 0.6-0.6 0.6-1.4 0-2zm7.9-4.6l-0.9 0.9-3.4-1.7 1.7 3.4-0.9 1-5.3-2.6 1-1 3.5 1.8-1.8-3.5 0.9-0.9 3.5 1.8-1.8-3.5 1-1zm7.4-7.4l-0.9 1-3.8-3.8 2.4 5.1-0.9 0.9-5.1-2.4 3.8 3.8-0.9 0.9-5.4-5.3 1.3-1.3 5.5 2.6-2.6-5.6 1.3-1.2zm1.5-6.9l2.7 2.8-0.9 0.9-0.6-0.6c0.2 0.8-0.2 1.5-0.6 1.9-0.6 0.6-1.6 0.9-2.4 0.1-1-1-0.3-2 0-2.5l0.7-0.9c0.1-0.1 0.4-0.5 0.1-0.8-0.3-0.3-0.8-0.1-1.1 0.2-0.6 0.6-0.5 1.1-0.3 1.4l-0.9 0.9c-0.7-1-0.5-2.2 0.5-3.2 0.9-0.8 1.9-1.1 2.8-0.2zm0.1 2.1l-0.2-0.3c-0.1 0.3-0.2 0.4-0.4 0.7l-0.3 0.4c-0.2 0.2-0.6 0.7-0.1 1.2 0.3 0.3 0.6 0.2 1-0.1 0.6-0.6 0.5-1.4 0-1.9zm3.9-3.2l0.4 2.2-1.2 1.2-0.5-3.4-3.5-0.5 1.3-1.3 2.1 0.4-0.4-2.1 1.2-1.2 0.5 3.4 3.5 0.5-1.2 1.2z"/>
		<g id="Layer">
			<path id="Layer" fill-rule="evenodd" class="s13" d="m353.3 948.5l13.8-13.8c3.2-3.2 8.4-3.3 11.7 0l13.7 13.8c3.3 3.2 3.3 8.4 0 11.7l-13.7 13.8c-3.3 3.2-8.5 3.2-11.7-0.1l-13.8-13.8c-3.3-3.2-3.3-8.3 0-11.6z"/>
			<path id="Layer" class="s14" d="m374.2 955.6l-5.2 5.2c-0.7 0.7-1.8 0.7-2.5 0-0.8-0.8-0.8-1.9-0.1-2.6l5.2-5.2c0.7-0.7 1.9-0.7 2.6 0 0.7 0.8 0.7 1.9 0 2.6z"/>
			<path id="Layer" class="s12" d="m367.7 949.1l-5.2 5.2c-0.7 0.7-1.8 0.7-2.6 0-0.7-0.7-0.7-1.8 0-2.5l5.3-5.3c4.2-4.2 11.1-4.2 15.5 0.1 4.2 4.3 4.2 11.2 0 15.4l-5.3 5.3c-0.7 0.7-1.8 0.7-2.5 0-0.7-0.7-0.7-1.9 0-2.6l5.2-5.2c2.8-2.8 2.8-7.5 0-10.3-2.9-2.9-7.5-2.9-10.4-0.1z"/>
		</g>
	</g>
	<g id="Layer" style="opacity: .4">
	</g>
	<g id="Layer" style="opacity: .4">
	</g>
	<g id="Layer" style="opacity: .4">
	</g>
	<g id="Layer" style="opacity: .4">
		<path id="Layer" fill-rule="evenodd" class="s12" d="m658.3 927.1l-1 1-5.1-2.7 2.7 5.1-1 0.9-6.8-3.9 1.1-1 4.7 2.9-2.6-5 1-1 4.9 2.7-2.8-4.8 1-1zm3.3-7.3c1.3 1.3 1.3 2.9 0.1 4-1.1 1.2-2.7 1.2-4-0.1-1.3-1.2-1.2-2.8-0.1-4 1.2-1.1 2.8-1.1 4 0.1zm-2.9 3c0.8 0.8 1.6 0.7 2.2 0.1 0.6-0.6 0.5-1.4-0.2-2.1-0.8-0.8-1.6-0.7-2.2-0.2-0.6 0.6-0.5 1.4 0.2 2.2zm6.5-7.7l2.5 2.6-0.9 0.9-2.5-2.5c-0.4-0.4-0.9-0.4-1.4 0.1-0.6 0.5-0.5 1.2 0.2 1.9l2.1 2.1-1 0.9-3.9-3.9 0.9-0.9 0.6 0.5c-0.1-0.5-0.1-1.1 0.6-1.8 0.9-0.9 1.9-0.8 2.8 0.1zm7.1-2l-0.9 0.9-0.6-0.6c0.2 0.7-0.1 1.4-0.6 2-1 0.9-2.4 1-3.8-0.3-1.4-1.4-1.3-2.9-0.3-3.8 0.5-0.5 1.2-0.8 1.8-0.7l-2-2 1-0.9zm-2.9-1.1c-0.8-0.8-1.7-0.6-2.2-0.1-0.6 0.5-0.7 1.4 0.1 2.2 0.8 0.8 1.7 0.7 2.2 0.2 0.6-0.6 0.7-1.5-0.1-2.3zm2.8-2.2c0.6 0.7 1.4 0.6 1.9 0 0.4-0.4 0.6-0.8 0.4-1.3l0.9-0.9c0.6 1.1 0.3 2.3-0.5 3.1-1 1-2.5 1.2-3.9-0.2-1.4-1.4-1.2-3-0.2-4 1-0.9 2.4-1.1 3.7 0.2l0.4 0.4zm-0.7-0.7l1.8-1.8c-0.5-0.5-1.1-0.4-1.7 0.1-0.4 0.4-0.6 1.1-0.1 1.7zm4.9-6.3l-0.2 0.3c-0.7 0.7-0.7 1.4 0.1 2.2l1.9 1.9-0.9 0.9-4-3.9 1-0.9 0.5 0.5c-0.2-0.6 0-1.2 0.4-1.6l0.3-0.3zm5.5-1.7c0.9 0.8 0.5 2.1-0.4 2.9-0.8 0.8-2 1.4-3.1 0.4l1-0.9c0.4 0.3 0.9 0.1 1.4-0.3 0.4-0.4 0.5-0.8 0.2-1.1-0.2-0.3-0.4-0.1-1.1 0.3-0.9 0.7-1.9 1.4-2.9 0.4-0.9-0.9-0.5-2 0.4-2.8 0.9-0.9 2-1.1 2.9-0.3l-0.9 0.9c-0.4-0.3-0.8-0.2-1.2 0.2-0.5 0.5-0.5 0.9-0.3 1.1 0.3 0.3 0.7 0 1.3-0.4 0.8-0.6 1.8-1.4 2.7-0.4zm2.8-5.5l2.5 2.6-0.9 0.9-2.5-2.4c-0.4-0.5-1-0.5-1.4 0-0.6 0.6-0.5 1.2 0.1 1.9l2.2 2.1-1 1-5.4-5.5 0.9-0.9 2.1 2.1c-0.1-0.6-0.1-1.2 0.6-1.9 0.8-0.9 1.8-0.8 2.8 0.1zm3.8-4.2l2.8 2.7-1 0.9-0.5-0.5c0.2 0.8-0.2 1.5-0.6 1.9-0.6 0.6-1.6 0.9-2.5 0.1-0.9-1-0.2-2.1 0.1-2.5l0.7-0.9c0.1-0.2 0.3-0.5 0-0.9-0.3-0.3-0.7-0.1-1 0.3-0.6 0.6-0.5 1-0.3 1.4l-0.9 0.9c-0.8-1.1-0.5-2.2 0.5-3.2 0.8-0.9 1.8-1.1 2.7-0.2zm0.2 2l-0.3-0.2c0 0.2-0.2 0.4-0.3 0.6l-0.4 0.5c-0.1 0.2-0.5 0.7-0.1 1.1 0.3 0.4 0.7 0.3 1-0.1 0.6-0.5 0.6-1.4 0.1-1.9zm2.6-5.4l-0.2 0.2c-0.7 0.7-0.7 1.4 0.1 2.2l1.9 1.9-1 0.9-3.9-3.9 0.9-0.9 0.6 0.5c-0.2-0.6 0-1.1 0.4-1.6l0.3-0.3zm2.5 0.3c0.6 0.6 1.3 0.5 1.9-0.1 0.4-0.4 0.6-0.8 0.4-1.3l0.9-0.9c0.6 1.1 0.3 2.3-0.5 3.1-1 1-2.5 1.2-3.9-0.2-1.4-1.4-1.2-2.9-0.2-3.9 1-1 2.4-1.2 3.7 0.1l0.4 0.4zm-0.7-0.8l1.8-1.7c-0.5-0.6-1.2-0.5-1.7 0-0.4 0.4-0.6 1.1-0.1 1.7zm-31 54.1l-5.3-5.3 3.6-3.6 0.9 0.9-2.6 2.6 1.3 1.3 2.4-2.4 0.9 0.9-2.4 2.4 1.3 1.3 2.7-2.7 1 0.9zm8.1-8l-0.9 0.9-0.6-0.6c0.2 0.7 0 1.4-0.6 1.9-1 1-2.4 1.1-3.8-0.3-1.4-1.3-1.2-2.8-0.3-3.8 0.5-0.5 1.2-0.7 1.8-0.6l-2-2 1-1zm-2.9-1.1c-0.8-0.8-1.7-0.7-2.2-0.1-0.6 0.5-0.7 1.4 0.1 2.2 0.8 0.8 1.7 0.7 2.3 0.1 0.5-0.5 0.6-1.4-0.2-2.2zm3-5.1l-0.3 0.2c-0.6 0.7-0.6 1.4 0.1 2.2l2 1.9-1 1-3.9-4 0.9-0.9 0.6 0.6c-0.2-0.7-0.1-1.2 0.4-1.7l0.3-0.3zm3.9-3.3l2.7 2.7-0.9 1-0.6-0.6c0.2 0.8-0.1 1.5-0.5 1.9-0.7 0.6-1.7 0.9-2.5 0.1-1-1-0.2-2.1 0.1-2.5l0.6-0.9c0.2-0.2 0.4-0.5 0.1-0.9-0.3-0.3-0.7-0.1-1.1 0.3-0.6 0.6-0.4 1-0.2 1.4l-0.9 0.9c-0.8-1.1-0.5-2.2 0.4-3.2 0.9-0.8 1.9-1.1 2.8-0.2zm0.1 2l-0.2-0.2c-0.1 0.2-0.2 0.4-0.4 0.6l-0.3 0.5c-0.2 0.2-0.5 0.7-0.1 1.2 0.3 0.3 0.7 0.2 1-0.1 0.6-0.6 0.6-1.4 0-2zm7.9-4.6l-0.9 0.9-3.4-1.7 1.7 3.4-0.9 1-5.3-2.6 1-1 3.5 1.8-1.8-3.5 0.9-0.9 3.5 1.8-1.8-3.5 1-1zm7.4-7.4l-0.9 1-3.8-3.8 2.4 5.1-0.9 0.9-5.1-2.4 3.8 3.8-0.9 0.9-5.4-5.3 1.3-1.3 5.5 2.6-2.6-5.6 1.3-1.2zm1.5-6.9l2.7 2.8-0.9 0.9-0.6-0.6c0.2 0.8-0.2 1.5-0.6 1.9-0.6 0.6-1.6 0.9-2.4 0.1-1-1-0.3-2 0-2.5l0.7-0.9c0.1-0.1 0.4-0.5 0.1-0.8-0.3-0.3-0.8-0.1-1.1 0.2-0.6 0.6-0.5 1.1-0.3 1.4l-0.9 0.9c-0.7-1-0.5-2.2 0.5-3.2 0.9-0.8 1.9-1.1 2.8-0.2zm0.1 2.1l-0.2-0.3c-0.1 0.3-0.2 0.4-0.4 0.7l-0.3 0.4c-0.2 0.2-0.6 0.7-0.1 1.2 0.3 0.3 0.6 0.2 1-0.1 0.6-0.6 0.5-1.4 0-1.9zm3.9-3.2l0.4 2.2-1.2 1.2-0.5-3.4-3.5-0.5 1.3-1.3 2.1 0.4-0.4-2.1 1.2-1.2 0.5 3.4 3.5 0.5-1.2 1.2z"/>
		<g id="Layer">
			<path id="Layer" fill-rule="evenodd" class="s13" d="m618.3 948.5l13.8-13.8c3.2-3.2 8.4-3.3 11.7 0l13.7 13.8c3.3 3.2 3.3 8.4 0 11.7l-13.7 13.8c-3.3 3.2-8.5 3.2-11.7-0.1l-13.8-13.8c-3.3-3.2-3.3-8.3 0-11.6z"/>
			<path id="Layer" class="s14" d="m639.2 955.6l-5.2 5.2c-0.7 0.7-1.8 0.7-2.5 0-0.8-0.8-0.8-1.9-0.1-2.6l5.2-5.2c0.7-0.7 1.9-0.7 2.6 0 0.7 0.8 0.7 1.9 0 2.6z"/>
			<path id="Layer" class="s12" d="m632.7 949.1l-5.2 5.2c-0.7 0.7-1.8 0.7-2.6 0-0.7-0.7-0.7-1.8 0-2.5l5.3-5.3c4.2-4.2 11.1-4.2 15.5 0.1 4.2 4.3 4.2 11.2 0 15.4l-5.3 5.3c-0.7 0.7-1.8 0.7-2.5 0-0.7-0.7-0.7-1.9 0-2.6l5.2-5.2c2.8-2.8 2.8-7.5 0-10.3-2.9-2.9-7.5-2.9-10.4-0.1z"/>
		</g>
	</g>
	<g id="Layer" style="opacity: .4">
	</g>
	<g id="Layer" style="opacity: .4">
	</g>
	<g id="Layer" style="opacity: .4">
	</g>
	<g id="Layer" style="opacity: .4">
		<path id="Layer" fill-rule="evenodd" class="s12" d="m923.3 927.1l-1 1-5.1-2.7 2.7 5.1-1 0.9-6.8-3.9 1.1-1 4.7 2.9-2.6-5 1-1 4.9 2.7-2.8-4.8 1-1zm3.3-7.3c1.3 1.3 1.3 2.9 0.1 4-1.1 1.2-2.7 1.2-4-0.1-1.3-1.2-1.2-2.8-0.1-4 1.2-1.1 2.8-1.1 4 0.1zm-2.9 3c0.8 0.8 1.6 0.7 2.2 0.1 0.6-0.6 0.5-1.4-0.2-2.1-0.8-0.8-1.6-0.7-2.2-0.2-0.6 0.6-0.5 1.4 0.2 2.2zm6.5-7.7l2.5 2.6-0.9 0.9-2.5-2.5c-0.4-0.4-0.9-0.4-1.4 0.1-0.6 0.5-0.5 1.2 0.2 1.9l2.1 2.1-1 0.9-3.9-3.9 0.9-0.9 0.6 0.5c-0.1-0.5-0.1-1.1 0.6-1.8 0.9-0.9 1.9-0.8 2.8 0.1zm7.1-2l-0.9 0.9-0.6-0.6c0.2 0.7-0.1 1.4-0.6 2-1 0.9-2.4 1-3.8-0.3-1.4-1.4-1.3-2.9-0.3-3.8 0.5-0.5 1.2-0.8 1.8-0.7l-2-2 1-0.9zm-2.9-1.1c-0.8-0.8-1.7-0.6-2.2-0.1-0.6 0.5-0.7 1.4 0.1 2.2 0.8 0.8 1.7 0.7 2.2 0.2 0.6-0.6 0.7-1.5-0.1-2.3zm2.8-2.2c0.6 0.7 1.4 0.6 1.9 0 0.4-0.4 0.6-0.8 0.4-1.3l0.9-0.9c0.6 1.1 0.3 2.3-0.5 3.1-1 1-2.5 1.2-3.9-0.2-1.4-1.4-1.2-3-0.2-4 1-0.9 2.4-1.1 3.7 0.2l0.4 0.4zm-0.7-0.7l1.8-1.8c-0.5-0.5-1.1-0.4-1.7 0.1-0.4 0.4-0.6 1.1-0.1 1.7zm4.9-6.3l-0.2 0.3c-0.7 0.7-0.7 1.4 0.1 2.2l1.9 1.9-0.9 0.9-4-3.9 1-0.9 0.5 0.5c-0.2-0.6 0-1.2 0.4-1.6l0.3-0.3zm5.5-1.7c0.9 0.8 0.5 2.1-0.4 2.9-0.8 0.8-2 1.4-3.1 0.4l1-0.9c0.4 0.3 0.9 0.1 1.4-0.3 0.4-0.4 0.5-0.8 0.2-1.1-0.2-0.3-0.4-0.1-1.1 0.3-0.9 0.7-1.9 1.4-2.9 0.4-0.9-0.9-0.5-2 0.4-2.8 0.9-0.9 2-1.1 2.9-0.3l-0.9 0.9c-0.4-0.3-0.8-0.2-1.2 0.2-0.5 0.5-0.5 0.9-0.3 1.1 0.3 0.3 0.7 0 1.3-0.4 0.8-0.6 1.8-1.4 2.7-0.4zm2.8-5.5l2.5 2.6-0.9 0.9-2.5-2.4c-0.4-0.5-1-0.5-1.4 0-0.6 0.6-0.5 1.2 0.1 1.9l2.2 2.1-1 1-5.4-5.5 0.9-0.9 2.1 2.1c-0.1-0.6-0.1-1.2 0.6-1.9 0.8-0.9 1.8-0.8 2.8 0.1zm3.8-4.2l2.8 2.7-1 0.9-0.5-0.5c0.2 0.8-0.2 1.5-0.6 1.9-0.6 0.6-1.6 0.9-2.5 0.1-0.9-1-0.2-2.1 0.1-2.5l0.7-0.9c0.1-0.2 0.3-0.5 0-0.9-0.3-0.3-0.7-0.1-1 0.3-0.6 0.6-0.5 1-0.3 1.4l-0.9 0.9c-0.8-1.1-0.5-2.2 0.5-3.2 0.8-0.9 1.8-1.1 2.7-0.2zm0.2 2l-0.3-0.2c0 0.2-0.2 0.4-0.3 0.6l-0.4 0.5c-0.1 0.2-0.5 0.7-0.1 1.1 0.3 0.4 0.7 0.3 1-0.1 0.6-0.5 0.6-1.4 0.1-1.9zm2.6-5.4l-0.2 0.2c-0.7 0.7-0.7 1.4 0.1 2.2l1.9 1.9-1 0.9-3.9-3.9 0.9-0.9 0.6 0.5c-0.2-0.6 0-1.1 0.4-1.6l0.3-0.3zm2.5 0.3c0.6 0.6 1.3 0.5 1.9-0.1 0.4-0.4 0.6-0.8 0.4-1.3l0.9-0.9c0.6 1.1 0.3 2.3-0.5 3.1-1 1-2.5 1.2-3.9-0.2-1.4-1.4-1.2-2.9-0.2-3.9 1-1 2.4-1.2 3.7 0.1l0.4 0.4zm-0.7-0.8l1.8-1.7c-0.5-0.6-1.2-0.5-1.7 0-0.4 0.4-0.6 1.1-0.1 1.7zm-31 54.1l-5.3-5.3 3.6-3.6 0.9 0.9-2.6 2.6 1.3 1.3 2.4-2.4 0.9 0.9-2.4 2.4 1.3 1.3 2.7-2.7 1 0.9zm8.1-8l-0.9 0.9-0.6-0.6c0.2 0.7 0 1.4-0.6 1.9-1 1-2.4 1.1-3.8-0.3-1.4-1.3-1.2-2.8-0.3-3.8 0.5-0.5 1.2-0.7 1.8-0.6l-2-2 1-1zm-2.9-1.1c-0.8-0.8-1.7-0.7-2.2-0.1-0.6 0.5-0.7 1.4 0.1 2.2 0.8 0.8 1.7 0.7 2.3 0.1 0.5-0.5 0.6-1.4-0.2-2.2zm3-5.1l-0.3 0.2c-0.6 0.7-0.6 1.4 0.1 2.2l2 1.9-1 1-3.9-4 0.9-0.9 0.6 0.6c-0.2-0.7-0.1-1.2 0.4-1.7l0.3-0.3zm3.9-3.3l2.7 2.7-0.9 1-0.6-0.6c0.2 0.8-0.1 1.5-0.5 1.9-0.7 0.6-1.7 0.9-2.5 0.1-1-1-0.2-2.1 0.1-2.5l0.6-0.9c0.2-0.2 0.4-0.5 0.1-0.9-0.3-0.3-0.7-0.1-1.1 0.3-0.6 0.6-0.4 1-0.2 1.4l-0.9 0.9c-0.8-1.1-0.5-2.2 0.4-3.2 0.9-0.8 1.9-1.1 2.8-0.2zm0.1 2l-0.2-0.2c-0.1 0.2-0.2 0.4-0.4 0.6l-0.3 0.5c-0.2 0.2-0.5 0.7-0.1 1.2 0.3 0.3 0.7 0.2 1-0.1 0.6-0.6 0.6-1.4 0-2zm7.9-4.6l-0.9 0.9-3.4-1.7 1.7 3.4-0.9 1-5.3-2.6 1-1 3.5 1.8-1.8-3.5 0.9-0.9 3.5 1.8-1.8-3.5 1-1zm7.4-7.4l-0.9 1-3.8-3.8 2.4 5.1-0.9 0.9-5.1-2.4 3.8 3.8-0.9 0.9-5.4-5.3 1.3-1.3 5.5 2.6-2.6-5.6 1.3-1.2zm1.5-6.9l2.7 2.8-0.9 0.9-0.6-0.6c0.2 0.8-0.2 1.5-0.6 1.9-0.6 0.6-1.6 0.9-2.4 0.1-1-1-0.3-2 0-2.5l0.7-0.9c0.1-0.1 0.4-0.5 0.1-0.8-0.3-0.3-0.8-0.1-1.1 0.2-0.6 0.6-0.5 1.1-0.3 1.4l-0.9 0.9c-0.7-1-0.5-2.2 0.5-3.2 0.9-0.8 1.9-1.1 2.8-0.2zm0.1 2.1l-0.2-0.3c-0.1 0.3-0.2 0.4-0.4 0.7l-0.3 0.4c-0.2 0.2-0.6 0.7-0.1 1.2 0.3 0.3 0.6 0.2 1-0.1 0.6-0.6 0.5-1.4 0-1.9zm3.9-3.2l0.4 2.2-1.2 1.2-0.5-3.4-3.5-0.5 1.3-1.3 2.1 0.4-0.4-2.1 1.2-1.2 0.5 3.4 3.5 0.5-1.2 1.2z"/>
		<g id="Layer">
			<path id="Layer" fill-rule="evenodd" class="s13" d="m883.3 948.5l13.8-13.8c3.2-3.2 8.4-3.3 11.7 0l13.7 13.8c3.3 3.2 3.3 8.4 0 11.7l-13.7 13.8c-3.3 3.2-8.5 3.2-11.7-0.1l-13.8-13.8c-3.3-3.2-3.3-8.3 0-11.6z"/>
			<path id="Layer" class="s14" d="m904.2 955.6l-5.2 5.2c-0.7 0.7-1.8 0.7-2.5 0-0.8-0.8-0.8-1.9-0.1-2.6l5.2-5.2c0.7-0.7 1.9-0.7 2.6 0 0.7 0.8 0.7 1.9 0 2.6z"/>
			<path id="Layer" class="s12" d="m897.7 949.1l-5.2 5.2c-0.7 0.7-1.8 0.7-2.6 0-0.7-0.7-0.7-1.8 0-2.5l5.3-5.3c4.2-4.2 11.1-4.2 15.5 0.1 4.2 4.3 4.2 11.2 0 15.4l-5.3 5.3c-0.7 0.7-1.8 0.7-2.5 0-0.7-0.7-0.7-1.9 0-2.6l5.2-5.2c2.8-2.8 2.8-7.5 0-10.3-2.9-2.9-7.5-2.9-10.4-0.1z"/>
		</g>
	</g>
	<g id="Layer" style="opacity: .4">
		<path id="Layer" fill-rule="evenodd" class="s12" d="m1188.3 132.1l-1 1-5.1-2.7 2.7 5.1-1 0.9-6.8-3.9 1.1-1 4.7 2.9-2.6-5 1-1 4.9 2.7-2.8-4.8 1-1zm3.3-7.3c1.3 1.3 1.3 2.9 0.1 4-1.1 1.2-2.7 1.2-4-0.1-1.3-1.2-1.2-2.8-0.1-4 1.2-1.1 2.8-1.1 4 0.1zm-2.9 3c0.8 0.8 1.6 0.7 2.2 0.1 0.6-0.6 0.5-1.4-0.2-2.1-0.8-0.8-1.6-0.7-2.2-0.2-0.6 0.6-0.5 1.4 0.2 2.2zm6.5-7.7l2.5 2.6-0.9 0.9-2.5-2.5c-0.4-0.4-0.9-0.4-1.4 0.1-0.6 0.5-0.5 1.2 0.2 1.9l2.1 2.1-1 0.9-3.9-3.9 0.9-0.9 0.6 0.5c-0.1-0.5-0.1-1.1 0.6-1.8 0.9-0.9 1.9-0.8 2.8 0.1zm7.1-2l-0.9 0.9-0.6-0.6c0.2 0.7-0.1 1.4-0.6 2-1 0.9-2.4 1-3.8-0.3-1.4-1.4-1.3-2.9-0.3-3.8 0.5-0.5 1.2-0.8 1.8-0.7l-2-2 1-0.9zm-2.9-1.1c-0.8-0.8-1.7-0.6-2.2-0.1-0.6 0.5-0.7 1.4 0.1 2.2 0.8 0.8 1.7 0.7 2.2 0.2 0.6-0.6 0.7-1.5-0.1-2.3zm2.8-2.2c0.6 0.7 1.4 0.6 1.9 0 0.4-0.4 0.6-0.8 0.4-1.3l0.9-0.9c0.6 1.1 0.3 2.3-0.5 3.1-1 1-2.5 1.2-3.9-0.2-1.4-1.4-1.2-3-0.2-4 1-0.9 2.4-1.1 3.7 0.2l0.4 0.4zm-0.7-0.7l1.8-1.8c-0.5-0.5-1.1-0.4-1.7 0.1-0.4 0.4-0.6 1.1-0.1 1.7zm4.9-6.3l-0.2 0.3c-0.7 0.7-0.7 1.4 0.1 2.2l1.9 1.9-0.9 0.9-4-3.9 1-0.9 0.5 0.5c-0.2-0.6 0-1.2 0.4-1.6l0.3-0.3zm5.5-1.7c0.9 0.8 0.5 2.1-0.4 2.9-0.8 0.8-2 1.4-3.1 0.4l1-0.9c0.4 0.3 0.9 0.1 1.4-0.3 0.4-0.4 0.5-0.8 0.2-1.1-0.2-0.3-0.4-0.1-1.1 0.3-0.9 0.7-1.9 1.4-2.9 0.4-0.9-0.9-0.5-2 0.4-2.8 0.9-0.9 2-1.1 2.9-0.3l-0.9 0.9c-0.4-0.3-0.8-0.2-1.2 0.2-0.5 0.5-0.5 0.9-0.3 1.1 0.3 0.3 0.7 0 1.3-0.4 0.8-0.6 1.8-1.4 2.7-0.4zm2.8-5.5l2.5 2.6-0.9 0.9-2.5-2.4c-0.4-0.5-1-0.5-1.4 0-0.6 0.6-0.5 1.2 0.1 1.9l2.2 2.1-1 1-5.4-5.5 0.9-0.9 2.1 2.1c-0.1-0.6-0.1-1.2 0.6-1.9 0.8-0.9 1.8-0.8 2.8 0.1zm3.8-4.2l2.8 2.7-1 0.9-0.5-0.5c0.2 0.8-0.2 1.5-0.6 1.9-0.6 0.6-1.6 0.9-2.5 0.1-0.9-1-0.2-2.1 0.1-2.5l0.7-0.9c0.1-0.2 0.3-0.5 0-0.9-0.3-0.3-0.7-0.1-1 0.3-0.6 0.6-0.5 1-0.3 1.4l-0.9 0.9c-0.8-1.1-0.5-2.2 0.5-3.2 0.8-0.9 1.8-1.1 2.7-0.2zm0.2 2l-0.3-0.2c0 0.2-0.2 0.4-0.3 0.6l-0.4 0.5c-0.1 0.2-0.5 0.7-0.1 1.1 0.3 0.4 0.7 0.3 1-0.1 0.6-0.5 0.6-1.4 0.1-1.9zm2.6-5.4l-0.2 0.2c-0.7 0.7-0.7 1.4 0.1 2.2l1.9 1.9-1 0.9-3.9-3.9 0.9-0.9 0.6 0.5c-0.2-0.6 0-1.1 0.4-1.6l0.3-0.3zm2.5 0.3c0.6 0.6 1.3 0.5 1.9-0.1 0.4-0.4 0.6-0.8 0.4-1.3l0.9-0.9c0.6 1.1 0.3 2.3-0.5 3.1-1 1-2.5 1.2-3.9-0.2-1.4-1.4-1.2-2.9-0.2-3.9 1-1 2.4-1.2 3.7 0.1l0.4 0.4zm-0.7-0.8l1.8-1.7c-0.5-0.6-1.2-0.5-1.7 0-0.4 0.4-0.6 1.1-0.1 1.7zm-31 54.1l-5.3-5.3 3.6-3.6 0.9 0.9-2.6 2.6 1.3 1.3 2.4-2.4 0.9 0.9-2.4 2.4 1.3 1.3 2.7-2.7 1 0.9zm8.1-8l-0.9 0.9-0.6-0.6c0.2 0.7 0 1.4-0.6 1.9-1 1-2.4 1.1-3.8-0.3-1.4-1.3-1.2-2.8-0.3-3.8 0.5-0.5 1.2-0.7 1.8-0.6l-2-2 1-1zm-2.9-1.1c-0.8-0.8-1.7-0.7-2.2-0.1-0.6 0.5-0.7 1.4 0.1 2.2 0.8 0.8 1.7 0.7 2.3 0.1 0.5-0.5 0.6-1.4-0.2-2.2zm3-5.1l-0.3 0.2c-0.6 0.7-0.6 1.4 0.1 2.2l2 1.9-1 1-3.9-4 0.9-0.9 0.6 0.6c-0.2-0.7-0.1-1.2 0.4-1.7l0.3-0.3zm3.9-3.3l2.7 2.7-0.9 1-0.6-0.6c0.2 0.8-0.1 1.5-0.5 1.9-0.7 0.6-1.7 0.9-2.5 0.1-1-1-0.2-2.1 0.1-2.5l0.6-0.9c0.2-0.2 0.4-0.5 0.1-0.9-0.3-0.3-0.7-0.1-1.1 0.3-0.6 0.6-0.4 1-0.2 1.4l-0.9 0.9c-0.8-1.1-0.5-2.2 0.4-3.2 0.9-0.8 1.9-1.1 2.8-0.2zm0.1 2l-0.2-0.2c-0.1 0.2-0.2 0.4-0.4 0.6l-0.3 0.5c-0.2 0.2-0.5 0.7-0.1 1.2 0.3 0.3 0.7 0.2 1-0.1 0.6-0.6 0.6-1.4 0-2zm7.9-4.6l-0.9 0.9-3.4-1.7 1.7 3.4-0.9 1-5.3-2.6 1-1 3.5 1.8-1.8-3.5 0.9-0.9 3.5 1.8-1.8-3.5 1-1zm7.4-7.4l-0.9 1-3.8-3.8 2.4 5.1-0.9 0.9-5.1-2.4 3.8 3.8-0.9 0.9-5.4-5.3 1.3-1.3 5.5 2.6-2.6-5.6 1.3-1.2zm1.5-6.9l2.7 2.8-0.9 0.9-0.6-0.6c0.2 0.8-0.2 1.5-0.6 1.9-0.6 0.6-1.6 0.9-2.4 0.1-1-1-0.3-2 0-2.5l0.7-0.9c0.1-0.1 0.4-0.5 0.1-0.8-0.3-0.3-0.8-0.1-1.1 0.2-0.6 0.6-0.5 1.1-0.3 1.4l-0.9 0.9c-0.7-1-0.5-2.2 0.5-3.2 0.9-0.8 1.9-1.1 2.8-0.2zm0.1 2.1l-0.2-0.3c-0.1 0.3-0.2 0.4-0.4 0.7l-0.3 0.4c-0.2 0.2-0.6 0.7-0.1 1.2 0.3 0.3 0.6 0.2 1-0.1 0.6-0.6 0.5-1.4 0-1.9zm3.9-3.2l0.4 2.2-1.2 1.2-0.5-3.4-3.5-0.5 1.3-1.3 2.1 0.4-0.4-2.1 1.2-1.2 0.5 3.4 3.5 0.5-1.2 1.2z"/>
		<g id="Layer">
			<path id="Layer" fill-rule="evenodd" class="s13" d="m1148.3 153.5l13.8-13.8c3.2-3.2 8.4-3.3 11.7 0l13.7 13.8c3.3 3.2 3.3 8.4 0 11.7l-13.7 13.8c-3.3 3.2-8.5 3.2-11.7-0.1l-13.8-13.8c-3.3-3.2-3.3-8.3 0-11.6z"/>
			<path id="Layer" class="s14" d="m1169.2 160.6l-5.2 5.2c-0.7 0.7-1.8 0.7-2.5 0-0.8-0.8-0.8-1.9-0.1-2.6l5.2-5.2c0.7-0.7 1.9-0.7 2.6 0 0.7 0.8 0.7 1.9 0 2.6z"/>
			<path id="Layer" class="s12" d="m1162.7 154.1l-5.2 5.2c-0.7 0.7-1.8 0.7-2.6 0-0.7-0.7-0.7-1.8 0-2.5l5.3-5.3c4.2-4.2 11.1-4.2 15.5 0.1 4.2 4.3 4.2 11.2 0 15.4l-5.3 5.3c-0.7 0.7-1.8 0.7-2.5 0-0.7-0.7-0.7-1.9 0-2.6l5.2-5.2c2.8-2.8 2.8-7.5 0-10.3-2.9-2.9-7.5-2.9-10.4-0.1z"/>
		</g>
	</g>
	<g id="Layer" style="opacity: .4">
		<path id="Layer" fill-rule="evenodd" class="s12" d="m1188.3 397.1l-1 1-5.1-2.7 2.7 5.1-1 0.9-6.8-3.9 1.1-1 4.7 2.9-2.6-5 1-1 4.9 2.7-2.8-4.8 1-1zm3.3-7.3c1.3 1.3 1.3 2.9 0.1 4-1.1 1.2-2.7 1.2-4-0.1-1.3-1.2-1.2-2.8-0.1-4 1.2-1.1 2.8-1.1 4 0.1zm-2.9 3c0.8 0.8 1.6 0.7 2.2 0.1 0.6-0.6 0.5-1.4-0.2-2.1-0.8-0.8-1.6-0.7-2.2-0.2-0.6 0.6-0.5 1.4 0.2 2.2zm6.5-7.7l2.5 2.6-0.9 0.9-2.5-2.5c-0.4-0.4-0.9-0.4-1.4 0.1-0.6 0.5-0.5 1.2 0.2 1.9l2.1 2.1-1 0.9-3.9-3.9 0.9-0.9 0.6 0.5c-0.1-0.5-0.1-1.1 0.6-1.8 0.9-0.9 1.9-0.8 2.8 0.1zm7.1-2l-0.9 0.9-0.6-0.6c0.2 0.7-0.1 1.4-0.6 2-1 0.9-2.4 1-3.8-0.3-1.4-1.4-1.3-2.9-0.3-3.8 0.5-0.5 1.2-0.8 1.8-0.7l-2-2 1-0.9zm-2.9-1.1c-0.8-0.8-1.7-0.6-2.2-0.1-0.6 0.5-0.7 1.4 0.1 2.2 0.8 0.8 1.7 0.7 2.2 0.2 0.6-0.6 0.7-1.5-0.1-2.3zm2.8-2.2c0.6 0.7 1.4 0.6 1.9 0 0.4-0.4 0.6-0.8 0.4-1.3l0.9-0.9c0.6 1.1 0.3 2.3-0.5 3.1-1 1-2.5 1.2-3.9-0.2-1.4-1.4-1.2-3-0.2-4 1-0.9 2.4-1.1 3.7 0.2l0.4 0.4zm-0.7-0.7l1.8-1.8c-0.5-0.5-1.1-0.4-1.7 0.1-0.4 0.4-0.6 1.1-0.1 1.7zm4.9-6.3l-0.2 0.3c-0.7 0.7-0.7 1.4 0.1 2.2l1.9 1.9-0.9 0.9-4-3.9 1-0.9 0.5 0.5c-0.2-0.6 0-1.2 0.4-1.6l0.3-0.3zm5.5-1.7c0.9 0.8 0.5 2.1-0.4 2.9-0.8 0.8-2 1.4-3.1 0.4l1-0.9c0.4 0.3 0.9 0.1 1.4-0.3 0.4-0.4 0.5-0.8 0.2-1.1-0.2-0.3-0.4-0.1-1.1 0.3-0.9 0.7-1.9 1.4-2.9 0.4-0.9-0.9-0.5-2 0.4-2.8 0.9-0.9 2-1.1 2.9-0.3l-0.9 0.9c-0.4-0.3-0.8-0.2-1.2 0.2-0.5 0.5-0.5 0.9-0.3 1.1 0.3 0.3 0.7 0 1.3-0.4 0.8-0.6 1.8-1.4 2.7-0.4zm2.8-5.5l2.5 2.6-0.9 0.9-2.5-2.4c-0.4-0.5-1-0.5-1.4 0-0.6 0.6-0.5 1.2 0.1 1.9l2.2 2.1-1 1-5.4-5.5 0.9-0.9 2.1 2.1c-0.1-0.6-0.1-1.2 0.6-1.9 0.8-0.9 1.8-0.8 2.8 0.1zm3.8-4.2l2.8 2.7-1 0.9-0.5-0.5c0.2 0.8-0.2 1.5-0.6 1.9-0.6 0.6-1.6 0.9-2.5 0.1-0.9-1-0.2-2.1 0.1-2.5l0.7-0.9c0.1-0.2 0.3-0.5 0-0.9-0.3-0.3-0.7-0.1-1 0.3-0.6 0.6-0.5 1-0.3 1.4l-0.9 0.9c-0.8-1.1-0.5-2.2 0.5-3.2 0.8-0.9 1.8-1.1 2.7-0.2zm0.2 2l-0.3-0.2c0 0.2-0.2 0.4-0.3 0.6l-0.4 0.5c-0.1 0.2-0.5 0.7-0.1 1.1 0.3 0.4 0.7 0.3 1-0.1 0.6-0.5 0.6-1.4 0.1-1.9zm2.6-5.4l-0.2 0.2c-0.7 0.7-0.7 1.4 0.1 2.2l1.9 1.9-1 0.9-3.9-3.9 0.9-0.9 0.6 0.5c-0.2-0.6 0-1.1 0.4-1.6l0.3-0.3zm2.5 0.3c0.6 0.6 1.3 0.5 1.9-0.1 0.4-0.4 0.6-0.8 0.4-1.3l0.9-0.9c0.6 1.1 0.3 2.3-0.5 3.1-1 1-2.5 1.2-3.9-0.2-1.4-1.4-1.2-2.9-0.2-3.9 1-1 2.4-1.2 3.7 0.1l0.4 0.4zm-0.7-0.8l1.8-1.7c-0.5-0.6-1.2-0.5-1.7 0-0.4 0.4-0.6 1.1-0.1 1.7zm-31 54.1l-5.3-5.3 3.6-3.6 0.9 0.9-2.6 2.6 1.3 1.3 2.4-2.4 0.9 0.9-2.4 2.4 1.3 1.3 2.7-2.7 1 0.9zm8.1-8l-0.9 0.9-0.6-0.6c0.2 0.7 0 1.4-0.6 1.9-1 1-2.4 1.1-3.8-0.3-1.4-1.3-1.2-2.8-0.3-3.8 0.5-0.5 1.2-0.7 1.8-0.6l-2-2 1-1zm-2.9-1.1c-0.8-0.8-1.7-0.7-2.2-0.1-0.6 0.5-0.7 1.4 0.1 2.2 0.8 0.8 1.7 0.7 2.3 0.1 0.5-0.5 0.6-1.4-0.2-2.2zm3-5.1l-0.3 0.2c-0.6 0.7-0.6 1.4 0.1 2.2l2 1.9-1 1-3.9-4 0.9-0.9 0.6 0.6c-0.2-0.7-0.1-1.2 0.4-1.7l0.3-0.3zm3.9-3.3l2.7 2.7-0.9 1-0.6-0.6c0.2 0.8-0.1 1.5-0.5 1.9-0.7 0.6-1.7 0.9-2.5 0.1-1-1-0.2-2.1 0.1-2.5l0.6-0.9c0.2-0.2 0.4-0.5 0.1-0.9-0.3-0.3-0.7-0.1-1.1 0.3-0.6 0.6-0.4 1-0.2 1.4l-0.9 0.9c-0.8-1.1-0.5-2.2 0.4-3.2 0.9-0.8 1.9-1.1 2.8-0.2zm0.1 2l-0.2-0.2c-0.1 0.2-0.2 0.4-0.4 0.6l-0.3 0.5c-0.2 0.2-0.5 0.7-0.1 1.2 0.3 0.3 0.7 0.2 1-0.1 0.6-0.6 0.6-1.4 0-2zm7.9-4.6l-0.9 0.9-3.4-1.7 1.7 3.4-0.9 1-5.3-2.6 1-1 3.5 1.8-1.8-3.5 0.9-0.9 3.5 1.8-1.8-3.5 1-1zm7.4-7.4l-0.9 1-3.8-3.8 2.4 5.1-0.9 0.9-5.1-2.4 3.8 3.8-0.9 0.9-5.4-5.3 1.3-1.3 5.5 2.6-2.6-5.6 1.3-1.2zm1.5-6.9l2.7 2.8-0.9 0.9-0.6-0.6c0.2 0.8-0.2 1.5-0.6 1.9-0.6 0.6-1.6 0.9-2.4 0.1-1-1-0.3-2 0-2.5l0.7-0.9c0.1-0.1 0.4-0.5 0.1-0.8-0.3-0.3-0.8-0.1-1.1 0.2-0.6 0.6-0.5 1.1-0.3 1.4l-0.9 0.9c-0.7-1-0.5-2.2 0.5-3.2 0.9-0.8 1.9-1.1 2.8-0.2zm0.1 2.1l-0.2-0.3c-0.1 0.3-0.2 0.4-0.4 0.7l-0.3 0.4c-0.2 0.2-0.6 0.7-0.1 1.2 0.3 0.3 0.6 0.2 1-0.1 0.6-0.6 0.5-1.4 0-1.9zm3.9-3.2l0.4 2.2-1.2 1.2-0.5-3.4-3.5-0.5 1.3-1.3 2.1 0.4-0.4-2.1 1.2-1.2 0.5 3.4 3.5 0.5-1.2 1.2z"/>
		<g id="Layer">
			<path id="Layer" fill-rule="evenodd" class="s13" d="m1148.3 418.5l13.8-13.8c3.2-3.2 8.4-3.3 11.7 0l13.7 13.8c3.3 3.2 3.3 8.4 0 11.7l-13.7 13.8c-3.3 3.2-8.5 3.2-11.7-0.1l-13.8-13.8c-3.3-3.2-3.3-8.3 0-11.6z"/>
			<path id="Layer" class="s14" d="m1169.2 425.6l-5.2 5.2c-0.7 0.7-1.8 0.7-2.5 0-0.8-0.8-0.8-1.9-0.1-2.6l5.2-5.2c0.7-0.7 1.9-0.7 2.6 0 0.7 0.8 0.7 1.9 0 2.6z"/>
			<path id="Layer" class="s12" d="m1162.7 419.1l-5.2 5.2c-0.7 0.7-1.8 0.7-2.6 0-0.7-0.7-0.7-1.8 0-2.5l5.3-5.3c4.2-4.2 11.1-4.2 15.5 0.1 4.2 4.3 4.2 11.2 0 15.4l-5.3 5.3c-0.7 0.7-1.8 0.7-2.5 0-0.7-0.7-0.7-1.9 0-2.6l5.2-5.2c2.8-2.8 2.8-7.5 0-10.3-2.9-2.9-7.5-2.9-10.4-0.1z"/>
		</g>
	</g>
	<g id="Layer" style="opacity: .4">
		<path id="Layer" fill-rule="evenodd" class="s12" d="m1188.3 662.1l-1 1-5.1-2.7 2.7 5.1-1 0.9-6.8-3.9 1.1-1 4.7 2.9-2.6-5 1-1 4.9 2.7-2.8-4.8 1-1zm3.3-7.3c1.3 1.3 1.3 2.9 0.1 4-1.1 1.2-2.7 1.2-4-0.1-1.3-1.2-1.2-2.8-0.1-4 1.2-1.1 2.8-1.1 4 0.1zm-2.9 3c0.8 0.8 1.6 0.7 2.2 0.1 0.6-0.6 0.5-1.4-0.2-2.1-0.8-0.8-1.6-0.7-2.2-0.2-0.6 0.6-0.5 1.4 0.2 2.2zm6.5-7.7l2.5 2.6-0.9 0.9-2.5-2.5c-0.4-0.4-0.9-0.4-1.4 0.1-0.6 0.5-0.5 1.2 0.2 1.9l2.1 2.1-1 0.9-3.9-3.9 0.9-0.9 0.6 0.5c-0.1-0.5-0.1-1.1 0.6-1.8 0.9-0.9 1.9-0.8 2.8 0.1zm7.1-2l-0.9 0.9-0.6-0.6c0.2 0.7-0.1 1.4-0.6 2-1 0.9-2.4 1-3.8-0.3-1.4-1.4-1.3-2.9-0.3-3.8 0.5-0.5 1.2-0.8 1.8-0.7l-2-2 1-0.9zm-2.9-1.1c-0.8-0.8-1.7-0.6-2.2-0.1-0.6 0.5-0.7 1.4 0.1 2.2 0.8 0.8 1.7 0.7 2.2 0.2 0.6-0.6 0.7-1.5-0.1-2.3zm2.8-2.2c0.6 0.7 1.4 0.6 1.9 0 0.4-0.4 0.6-0.8 0.4-1.3l0.9-0.9c0.6 1.1 0.3 2.3-0.5 3.1-1 1-2.5 1.2-3.9-0.2-1.4-1.4-1.2-3-0.2-4 1-0.9 2.4-1.1 3.7 0.2l0.4 0.4zm-0.7-0.7l1.8-1.8c-0.5-0.5-1.1-0.4-1.7 0.1-0.4 0.4-0.6 1.1-0.1 1.7zm4.9-6.3l-0.2 0.3c-0.7 0.7-0.7 1.4 0.1 2.2l1.9 1.9-0.9 0.9-4-3.9 1-0.9 0.5 0.5c-0.2-0.6 0-1.2 0.4-1.6l0.3-0.3zm5.5-1.7c0.9 0.8 0.5 2.1-0.4 2.9-0.8 0.8-2 1.4-3.1 0.4l1-0.9c0.4 0.3 0.9 0.1 1.4-0.3 0.4-0.4 0.5-0.8 0.2-1.1-0.2-0.3-0.4-0.1-1.1 0.3-0.9 0.7-1.9 1.4-2.9 0.4-0.9-0.9-0.5-2 0.4-2.8 0.9-0.9 2-1.1 2.9-0.3l-0.9 0.9c-0.4-0.3-0.8-0.2-1.2 0.2-0.5 0.5-0.5 0.9-0.3 1.1 0.3 0.3 0.7 0 1.3-0.4 0.8-0.6 1.8-1.4 2.7-0.4zm2.8-5.5l2.5 2.6-0.9 0.9-2.5-2.4c-0.4-0.5-1-0.5-1.4 0-0.6 0.6-0.5 1.2 0.1 1.9l2.2 2.1-1 1-5.4-5.5 0.9-0.9 2.1 2.1c-0.1-0.6-0.1-1.2 0.6-1.9 0.8-0.9 1.8-0.8 2.8 0.1zm3.8-4.2l2.8 2.7-1 0.9-0.5-0.5c0.2 0.8-0.2 1.5-0.6 1.9-0.6 0.6-1.6 0.9-2.5 0.1-0.9-1-0.2-2.1 0.1-2.5l0.7-0.9c0.1-0.2 0.3-0.5 0-0.9-0.3-0.3-0.7-0.1-1 0.3-0.6 0.6-0.5 1-0.3 1.4l-0.9 0.9c-0.8-1.1-0.5-2.2 0.5-3.2 0.8-0.9 1.8-1.1 2.7-0.2zm0.2 2l-0.3-0.2c0 0.2-0.2 0.4-0.3 0.6l-0.4 0.5c-0.1 0.2-0.5 0.7-0.1 1.1 0.3 0.4 0.7 0.3 1-0.1 0.6-0.5 0.6-1.4 0.1-1.9zm2.6-5.4l-0.2 0.2c-0.7 0.7-0.7 1.4 0.1 2.2l1.9 1.9-1 0.9-3.9-3.9 0.9-0.9 0.6 0.5c-0.2-0.6 0-1.1 0.4-1.6l0.3-0.3zm2.5 0.3c0.6 0.6 1.3 0.5 1.9-0.1 0.4-0.4 0.6-0.8 0.4-1.3l0.9-0.9c0.6 1.1 0.3 2.3-0.5 3.1-1 1-2.5 1.2-3.9-0.2-1.4-1.4-1.2-2.9-0.2-3.9 1-1 2.4-1.2 3.7 0.1l0.4 0.4zm-0.7-0.8l1.8-1.7c-0.5-0.6-1.2-0.5-1.7 0-0.4 0.4-0.6 1.1-0.1 1.7zm-31 54.1l-5.3-5.3 3.6-3.6 0.9 0.9-2.6 2.6 1.3 1.3 2.4-2.4 0.9 0.9-2.4 2.4 1.3 1.3 2.7-2.7 1 0.9zm8.1-8l-0.9 0.9-0.6-0.6c0.2 0.7 0 1.4-0.6 1.9-1 1-2.4 1.1-3.8-0.3-1.4-1.3-1.2-2.8-0.3-3.8 0.5-0.5 1.2-0.7 1.8-0.6l-2-2 1-1zm-2.9-1.1c-0.8-0.8-1.7-0.7-2.2-0.1-0.6 0.5-0.7 1.4 0.1 2.2 0.8 0.8 1.7 0.7 2.3 0.1 0.5-0.5 0.6-1.4-0.2-2.2zm3-5.1l-0.3 0.2c-0.6 0.7-0.6 1.4 0.1 2.2l2 1.9-1 1-3.9-4 0.9-0.9 0.6 0.6c-0.2-0.7-0.1-1.2 0.4-1.7l0.3-0.3zm3.9-3.3l2.7 2.7-0.9 1-0.6-0.6c0.2 0.8-0.1 1.5-0.5 1.9-0.7 0.6-1.7 0.9-2.5 0.1-1-1-0.2-2.1 0.1-2.5l0.6-0.9c0.2-0.2 0.4-0.5 0.1-0.9-0.3-0.3-0.7-0.1-1.1 0.3-0.6 0.6-0.4 1-0.2 1.4l-0.9 0.9c-0.8-1.1-0.5-2.2 0.4-3.2 0.9-0.8 1.9-1.1 2.8-0.2zm0.1 2l-0.2-0.2c-0.1 0.2-0.2 0.4-0.4 0.6l-0.3 0.5c-0.2 0.2-0.5 0.7-0.1 1.2 0.3 0.3 0.7 0.2 1-0.1 0.6-0.6 0.6-1.4 0-2zm7.9-4.6l-0.9 0.9-3.4-1.7 1.7 3.4-0.9 1-5.3-2.6 1-1 3.5 1.8-1.8-3.5 0.9-0.9 3.5 1.8-1.8-3.5 1-1zm7.4-7.4l-0.9 1-3.8-3.8 2.4 5.1-0.9 0.9-5.1-2.4 3.8 3.8-0.9 0.9-5.4-5.3 1.3-1.3 5.5 2.6-2.6-5.6 1.3-1.2zm1.5-6.9l2.7 2.8-0.9 0.9-0.6-0.6c0.2 0.8-0.2 1.5-0.6 1.9-0.6 0.6-1.6 0.9-2.4 0.1-1-1-0.3-2 0-2.5l0.7-0.9c0.1-0.1 0.4-0.5 0.1-0.8-0.3-0.3-0.8-0.1-1.1 0.2-0.6 0.6-0.5 1.1-0.3 1.4l-0.9 0.9c-0.7-1-0.5-2.2 0.5-3.2 0.9-0.8 1.9-1.1 2.8-0.2zm0.1 2.1l-0.2-0.3c-0.1 0.3-0.2 0.4-0.4 0.7l-0.3 0.4c-0.2 0.2-0.6 0.7-0.1 1.2 0.3 0.3 0.6 0.2 1-0.1 0.6-0.6 0.5-1.4 0-1.9zm3.9-3.2l0.4 2.2-1.2 1.2-0.5-3.4-3.5-0.5 1.3-1.3 2.1 0.4-0.4-2.1 1.2-1.2 0.5 3.4 3.5 0.5-1.2 1.2z"/>
		<g id="Layer">
			<path id="Layer" fill-rule="evenodd" class="s13" d="m1148.3 683.5l13.8-13.8c3.2-3.2 8.4-3.3 11.7 0l13.7 13.8c3.3 3.2 3.3 8.4 0 11.7l-13.7 13.8c-3.3 3.2-8.5 3.2-11.7-0.1l-13.8-13.8c-3.3-3.2-3.3-8.3 0-11.6z"/>
			<path id="Layer" class="s14" d="m1169.2 690.6l-5.2 5.2c-0.7 0.7-1.8 0.7-2.5 0-0.8-0.8-0.8-1.9-0.1-2.6l5.2-5.2c0.7-0.7 1.9-0.7 2.6 0 0.7 0.8 0.7 1.9 0 2.6z"/>
			<path id="Layer" class="s12" d="m1162.7 684.1l-5.2 5.2c-0.7 0.7-1.8 0.7-2.6 0-0.7-0.7-0.7-1.8 0-2.5l5.3-5.3c4.2-4.2 11.1-4.2 15.5 0.1 4.2 4.3 4.2 11.2 0 15.4l-5.3 5.3c-0.7 0.7-1.8 0.7-2.5 0-0.7-0.7-0.7-1.9 0-2.6l5.2-5.2c2.8-2.8 2.8-7.5 0-10.3-2.9-2.9-7.5-2.9-10.4-0.1z"/>
		</g>
	</g>
	<g id="Layer" style="opacity: .4">
		<path id="Layer" fill-rule="evenodd" class="s12" d="m1188.3 927.1l-1 1-5.1-2.7 2.7 5.1-1 0.9-6.8-3.9 1.1-1 4.7 2.9-2.6-5 1-1 4.9 2.7-2.8-4.8 1-1zm3.3-7.3c1.3 1.3 1.3 2.9 0.1 4-1.1 1.2-2.7 1.2-4-0.1-1.3-1.2-1.2-2.8-0.1-4 1.2-1.1 2.8-1.1 4 0.1zm-2.9 3c0.8 0.8 1.6 0.7 2.2 0.1 0.6-0.6 0.5-1.4-0.2-2.1-0.8-0.8-1.6-0.7-2.2-0.2-0.6 0.6-0.5 1.4 0.2 2.2zm6.5-7.7l2.5 2.6-0.9 0.9-2.5-2.5c-0.4-0.4-0.9-0.4-1.4 0.1-0.6 0.5-0.5 1.2 0.2 1.9l2.1 2.1-1 0.9-3.9-3.9 0.9-0.9 0.6 0.5c-0.1-0.5-0.1-1.1 0.6-1.8 0.9-0.9 1.9-0.8 2.8 0.1zm7.1-2l-0.9 0.9-0.6-0.6c0.2 0.7-0.1 1.4-0.6 2-1 0.9-2.4 1-3.8-0.3-1.4-1.4-1.3-2.9-0.3-3.8 0.5-0.5 1.2-0.8 1.8-0.7l-2-2 1-0.9zm-2.9-1.1c-0.8-0.8-1.7-0.6-2.2-0.1-0.6 0.5-0.7 1.4 0.1 2.2 0.8 0.8 1.7 0.7 2.2 0.2 0.6-0.6 0.7-1.5-0.1-2.3zm2.8-2.2c0.6 0.7 1.4 0.6 1.9 0 0.4-0.4 0.6-0.8 0.4-1.3l0.9-0.9c0.6 1.1 0.3 2.3-0.5 3.1-1 1-2.5 1.2-3.9-0.2-1.4-1.4-1.2-3-0.2-4 1-0.9 2.4-1.1 3.7 0.2l0.4 0.4zm-0.7-0.7l1.8-1.8c-0.5-0.5-1.1-0.4-1.7 0.1-0.4 0.4-0.6 1.1-0.1 1.7zm4.9-6.3l-0.2 0.3c-0.7 0.7-0.7 1.4 0.1 2.2l1.9 1.9-0.9 0.9-4-3.9 1-0.9 0.5 0.5c-0.2-0.6 0-1.2 0.4-1.6l0.3-0.3zm5.5-1.7c0.9 0.8 0.5 2.1-0.4 2.9-0.8 0.8-2 1.4-3.1 0.4l1-0.9c0.4 0.3 0.9 0.1 1.4-0.3 0.4-0.4 0.5-0.8 0.2-1.1-0.2-0.3-0.4-0.1-1.1 0.3-0.9 0.7-1.9 1.4-2.9 0.4-0.9-0.9-0.5-2 0.4-2.8 0.9-0.9 2-1.1 2.9-0.3l-0.9 0.9c-0.4-0.3-0.8-0.2-1.2 0.2-0.5 0.5-0.5 0.9-0.3 1.1 0.3 0.3 0.7 0 1.3-0.4 0.8-0.6 1.8-1.4 2.7-0.4zm2.8-5.5l2.5 2.6-0.9 0.9-2.5-2.4c-0.4-0.5-1-0.5-1.4 0-0.6 0.6-0.5 1.2 0.1 1.9l2.2 2.1-1 1-5.4-5.5 0.9-0.9 2.1 2.1c-0.1-0.6-0.1-1.2 0.6-1.9 0.8-0.9 1.8-0.8 2.8 0.1zm3.8-4.2l2.8 2.7-1 0.9-0.5-0.5c0.2 0.8-0.2 1.5-0.6 1.9-0.6 0.6-1.6 0.9-2.5 0.1-0.9-1-0.2-2.1 0.1-2.5l0.7-0.9c0.1-0.2 0.3-0.5 0-0.9-0.3-0.3-0.7-0.1-1 0.3-0.6 0.6-0.5 1-0.3 1.4l-0.9 0.9c-0.8-1.1-0.5-2.2 0.5-3.2 0.8-0.9 1.8-1.1 2.7-0.2zm0.2 2l-0.3-0.2c0 0.2-0.2 0.4-0.3 0.6l-0.4 0.5c-0.1 0.2-0.5 0.7-0.1 1.1 0.3 0.4 0.7 0.3 1-0.1 0.6-0.5 0.6-1.4 0.1-1.9zm2.6-5.4l-0.2 0.2c-0.7 0.7-0.7 1.4 0.1 2.2l1.9 1.9-1 0.9-3.9-3.9 0.9-0.9 0.6 0.5c-0.2-0.6 0-1.1 0.4-1.6l0.3-0.3zm2.5 0.3c0.6 0.6 1.3 0.5 1.9-0.1 0.4-0.4 0.6-0.8 0.4-1.3l0.9-0.9c0.6 1.1 0.3 2.3-0.5 3.1-1 1-2.5 1.2-3.9-0.2-1.4-1.4-1.2-2.9-0.2-3.9 1-1 2.4-1.2 3.7 0.1l0.4 0.4zm-0.7-0.8l1.8-1.7c-0.5-0.6-1.2-0.5-1.7 0-0.4 0.4-0.6 1.1-0.1 1.7zm-31 54.1l-5.3-5.3 3.6-3.6 0.9 0.9-2.6 2.6 1.3 1.3 2.4-2.4 0.9 0.9-2.4 2.4 1.3 1.3 2.7-2.7 1 0.9zm8.1-8l-0.9 0.9-0.6-0.6c0.2 0.7 0 1.4-0.6 1.9-1 1-2.4 1.1-3.8-0.3-1.4-1.3-1.2-2.8-0.3-3.8 0.5-0.5 1.2-0.7 1.8-0.6l-2-2 1-1zm-2.9-1.1c-0.8-0.8-1.7-0.7-2.2-0.1-0.6 0.5-0.7 1.4 0.1 2.2 0.8 0.8 1.7 0.7 2.3 0.1 0.5-0.5 0.6-1.4-0.2-2.2zm3-5.1l-0.3 0.2c-0.6 0.7-0.6 1.4 0.1 2.2l2 1.9-1 1-3.9-4 0.9-0.9 0.6 0.6c-0.2-0.7-0.1-1.2 0.4-1.7l0.3-0.3zm3.9-3.3l2.7 2.7-0.9 1-0.6-0.6c0.2 0.8-0.1 1.5-0.5 1.9-0.7 0.6-1.7 0.9-2.5 0.1-1-1-0.2-2.1 0.1-2.5l0.6-0.9c0.2-0.2 0.4-0.5 0.1-0.9-0.3-0.3-0.7-0.1-1.1 0.3-0.6 0.6-0.4 1-0.2 1.4l-0.9 0.9c-0.8-1.1-0.5-2.2 0.4-3.2 0.9-0.8 1.9-1.1 2.8-0.2zm0.1 2l-0.2-0.2c-0.1 0.2-0.2 0.4-0.4 0.6l-0.3 0.5c-0.2 0.2-0.5 0.7-0.1 1.2 0.3 0.3 0.7 0.2 1-0.1 0.6-0.6 0.6-1.4 0-2zm7.9-4.6l-0.9 0.9-3.4-1.7 1.7 3.4-0.9 1-5.3-2.6 1-1 3.5 1.8-1.8-3.5 0.9-0.9 3.5 1.8-1.8-3.5 1-1zm7.4-7.4l-0.9 1-3.8-3.8 2.4 5.1-0.9 0.9-5.1-2.4 3.8 3.8-0.9 0.9-5.4-5.3 1.3-1.3 5.5 2.6-2.6-5.6 1.3-1.2zm1.5-6.9l2.7 2.8-0.9 0.9-0.6-0.6c0.2 0.8-0.2 1.5-0.6 1.9-0.6 0.6-1.6 0.9-2.4 0.1-1-1-0.3-2 0-2.5l0.7-0.9c0.1-0.1 0.4-0.5 0.1-0.8-0.3-0.3-0.8-0.1-1.1 0.2-0.6 0.6-0.5 1.1-0.3 1.4l-0.9 0.9c-0.7-1-0.5-2.2 0.5-3.2 0.9-0.8 1.9-1.1 2.8-0.2zm0.1 2.1l-0.2-0.3c-0.1 0.3-0.2 0.4-0.4 0.7l-0.3 0.4c-0.2 0.2-0.6 0.7-0.1 1.2 0.3 0.3 0.6 0.2 1-0.1 0.6-0.6 0.5-1.4 0-1.9zm3.9-3.2l0.4 2.2-1.2 1.2-0.5-3.4-3.5-0.5 1.3-1.3 2.1 0.4-0.4-2.1 1.2-1.2 0.5 3.4 3.5 0.5-1.2 1.2z"/>
		<g id="Layer">
			<path id="Layer" fill-rule="evenodd" class="s13" d="m1148.3 948.5l13.8-13.8c3.2-3.2 8.4-3.3 11.7 0l13.7 13.8c3.3 3.2 3.3 8.4 0 11.7l-13.7 13.8c-3.3 3.2-8.5 3.2-11.7-0.1l-13.8-13.8c-3.3-3.2-3.3-8.3 0-11.6z"/>
			<path id="Layer" class="s14" d="m1169.2 955.6l-5.2 5.2c-0.7 0.7-1.8 0.7-2.5 0-0.8-0.8-0.8-1.9-0.1-2.6l5.2-5.2c0.7-0.7 1.9-0.7 2.6 0 0.7 0.8 0.7 1.9 0 2.6z"/>
			<path id="Layer" class="s12" d="m1162.7 949.1l-5.2 5.2c-0.7 0.7-1.8 0.7-2.6 0-0.7-0.7-0.7-1.8 0-2.5l5.3-5.3c4.2-4.2 11.1-4.2 15.5 0.1 4.2 4.3 4.2 11.2 0 15.4l-5.3 5.3c-0.7 0.7-1.8 0.7-2.5 0-0.7-0.7-0.7-1.9 0-2.6l5.2-5.2c2.8-2.8 2.8-7.5 0-10.3-2.9-2.9-7.5-2.9-10.4-0.1z"/>
		</g>
	</g>
	<g id="Layer">
		<g id="Layer">
		</g>
	</g>
</svg>